<?xml version="1.0" encoding="UTF-8"?>
<svg width="154px" height="32px" viewBox="0 0 154 32" version="1.1" xmlns="http://www.w3.org/2000/svg" xmlns:xlink="http://www.w3.org/1999/xlink">
    <!-- Generator: Sketch 53.2 (72643) - https://sketchapp.com -->
    <title>PF_b</title>
    <desc>Created with Sketch.</desc>
    <defs>
        <polygon id="path-1" points="0 0.434913088 33.7786971 0.434913088 33.7786971 31.5105829 0 31.5105829"></polygon>
        <path d="M6.85302857,1.07062857 C-3.65165714,3.6576 1.13325714,7.89257143 1.13325714,7.89257143 L1.13325714,7.89257143 C5.48205714,12.2518857 11.9154286,14.5645714 11.7380571,19.5625143 L11.7380571,19.5625143 C11.6132571,23.0820571 8.15908571,25.7472 5.74811429,26.5083429 L5.74811429,26.5083429 L11.6109714,26.5142857 L11.6164571,26.5142857 C14.8224,26.5142857 17.1204571,23.4189714 16.1933714,20.3474286 L16.1933714,20.3474286 L10.1444571,0.302171429 C9.17805714,0.514285714 8.08502857,0.767542857 6.85302857,1.07062857" id="path-3"></path>
        <linearGradient x1="49.9698047%" y1="99.9872378%" x2="50.0311369%" y2="-0.00678246917%" id="linearGradient-5">
            <stop stop-color="#0059B3" offset="0%"></stop>
            <stop stop-color="#0077C8" offset="100%"></stop>
        </linearGradient>
    </defs>
    <g id="Page-1" stroke="none" stroke-width="1" fill="none" fill-rule="evenodd">
        <g id="PF_b">
            <g id="分组" transform="translate(0.000000, 0.022217)">
                <mask id="mask-2" fill="white">
                    <use xlink:href="#path-1"></use>
                </mask>
                <g id="Clip-2"></g>
                <path d="M16.0072686,12.3000686 C16.6138971,15.3624686 19.0029257,17.0634971 21.1524114,19.42144 C21.1524114,19.42144 25.5848686,22.17664 19.8193829,25.7112686 C15.6209829,28.2785829 9.40246857,30.4970971 6.32955429,31.5105829 L3.59172571,31.5082971 C0.483611429,31.5050971 -1.15021714,27.8196114 0.931611429,25.5133257 L20.7135543,3.65778286 C20.9050971,3.41869714 21.1089829,3.19149714 21.3242971,2.97618286 C22.6760686,1.62624 24.4584686,0.718811429 26.4548114,0.505782857 C26.5146971,0.493897143 26.5745829,0.482011429 26.6344686,0.482011429 C26.9092114,0.446354286 27.1844114,0.434468571 27.47104,0.434925714 L28.5352686,0.43584 C30.9613257,0.737554286 32.9562971,2.41389714 33.7192686,4.65115429 C33.74304,4.71104 33.7668114,4.78281143 33.7786971,4.85458286 C30.6824686,5.18646857 26.9279543,5.66098286 24.2737829,6.25618286 C24.2737829,6.25618286 22.9823543,6.47058286 21.4157257,6.98349714 C20.5905829,7.24544 19.6936686,7.59149714 18.85664,8.03355429 C17.0623543,8.97618286 15.6145829,10.36224 16.0072686,12.3000686" id="Fill-1" fill="#0096DC" mask="url(#mask-2)"></path>
            </g>
            <g id="分组" transform="translate(23.771429, 5.050789)">
                <mask id="mask-4" fill="white">
                    <use xlink:href="#path-3"></use>
                </mask>
                <g id="Clip-4"></g>
                <path d="M6.85302857,1.07062857 C-3.65165714,3.6576 1.13325714,7.89257143 1.13325714,7.89257143 L1.13325714,7.89257143 C5.48205714,12.2518857 11.9154286,14.5645714 11.7380571,19.5625143 L11.7380571,19.5625143 C11.6132571,23.0820571 8.15908571,25.7472 5.74811429,26.5083429 L5.74811429,26.5083429 L11.6109714,26.5142857 L11.6164571,26.5142857 C14.8224,26.5142857 17.1204571,23.4189714 16.1933714,20.3474286 L16.1933714,20.3474286 L10.1444571,0.302171429 C9.17805714,0.514285714 8.08502857,0.767542857 6.85302857,1.07062857" id="Fill-3" fill="url(#linearGradient-5)" mask="url(#mask-4)"></path>
            </g>
            <g id="分组" transform="translate(45.257143, 5.507931)" fill="#333333">
                <path d="M107.661257,4.02619429 L107.664,1.58459429 L95.7526857,1.57270857 L95.7540571,0.178422857 L89.3257143,0.172022857 L89.3243429,1.56676571 L77.5465143,1.55488 L77.5442286,3.99648 L89.3216,4.00790857 L89.3193143,6.28310857 L77.5419429,6.27168 L77.5396571,8.45499429 L81.4962286,8.45910857 L77.8788571,13.1384229 L78.9056,13.1397943 L78.8928,25.9731657 L84.4073143,25.9800229 L84.4128,20.3269943 L84.4132571,20.3269943 L84.4196571,13.5859657 L102.061257,13.6033371 L102.052114,23.0981943 L90.3419429,23.0867657 L90.3456,19.6229943 L97.5643429,19.6298514 L99.2886857,16.7393371 L90.3483429,16.7306514 L87.4564571,16.7279086 L87.4532571,19.6202514 L87.4500571,23.0840229 L87.4459429,23.0840229 L87.4432,25.98368 L104.603429,26.0037943 C106.280229,26.0056229 107.641143,24.6474514 107.642971,22.9701943 L107.6544,10.93088 L85.4902857,10.9089371 L87.4848,8.46505143 L107.657143,8.48470857 L107.658971,6.30139429 L103.994514,6.29773714 L105.066057,4.79008 L99.1949714,4.78413714 L98.1229714,6.29225143 L95.7476571,6.28950857 L95.7499429,4.01430857 L107.661257,4.02619429 Z" id="Fill-5"></path>
                <path d="M55.6853943,23.16032 L55.6831086,16.3114057 L64.2787657,16.3196343 L64.2833371,23.1690057 L55.6853943,23.16032 Z M53.8883657,13.5114057 C52.3130514,13.5095771 51.03488,14.7530057 51.0330514,16.2890057 L51.0239086,25.95392 L66.0776229,25.9690057 C67.6506514,25.96992 68.9265371,24.7292343 68.9283657,23.1959771 L68.9375086,13.5260343 L53.8883657,13.5114057 Z" id="Fill-7"></path>
                <path d="M41.7965257,2.92370286 L46.8241829,2.92873143 L46.8196114,7.70221714 L41.7914971,7.69718857 L41.7965257,2.92370286 Z M38.7999543,10.4926171 L46.8164114,10.5003886 C48.4676114,10.5022171 49.80704,9.25056 49.8084114,7.70496 L49.8161829,0.133302857 L38.8104686,0.122331429 L38.7999543,10.4926171 Z" id="Fill-9"></path>
                <polygon id="Fill-11" points="46.7603657 11.8313143 42.5738514 11.8272 42.5624229 23.1296 41.3103086 23.1282286 41.3217371 11.7595429 38.7987657 11.7572571 38.7850514 25.9241143 49.7898514 25.9350857 49.7930514 23.1364571 46.7493943 23.1337143 46.7535086 18.5430857 49.7976229 18.5458286 49.7999086 15.7476571 46.7562514 15.7449143"></polygon>
                <path d="M68.9282286,13.0420114 L68.9314286,9.98601143 C66.7641143,9.71629714 64.6196571,9.15355429 62.6,8.36041143 C64.3531429,7.07721143 65.9353143,5.59698286 67.2765714,3.92841143 C67.8777143,3.18418286 68.4281143,2.00292571 68.9323429,1.19515429 L55.8713143,1.18235429 L56.1104,0.139154286 L51.8598857,0.13504 L50.9954286,3.90235429 L50.9986286,3.90235429 L50.9954286,3.91241143 L63.2313143,3.92429714 C62.1131429,5.04155429 60.8596571,6.03309714 59.5069714,6.89755429 C58.3888,6.27035429 57.3328,5.57321143 56.3773714,4.79652571 L51.7716571,4.79195429 C53.1156571,6.21092571 54.6795429,7.46669714 56.3769143,8.57024 C54.6822857,9.31218286 52.8784,9.86898286 50.9894857,10.1972114 L50.9862857,13.1284114 C54.0212571,12.6708114 56.8665143,11.6938971 59.4475429,10.3274971 C62.3714286,11.73824 65.5984,12.6808686 68.9282286,13.0420114" id="Fill-13"></path>
                <polygon id="Fill-15" points="10.0273371 25.9067429 14.2261943 25.9113143 15.3983086 12.5650286 11.3338514 12.5613714"></polygon>
                <path d="M22.9943314,8.05988571 L17.2251886,8.05394286 L17.2238171,9.28182857 L10.8704457,9.27542857 L10.0078171,11.4614857 L17.2219886,11.4688 L17.20736,25.9140571 L20.1970743,25.9172571 C22.6912457,25.9190857 22.9783314,24.6834286 22.9792457,23.7499429 L22.9911314,11.4747429 L29.3440457,11.4806857 L30.2066743,9.29462857 L22.99296,9.28731429 L22.9943314,8.05988571 Z" id="Fill-17"></path>
                <polygon id="Fill-19" points="24.81216 12.5746286 26.0839314 25.9227429 30.1566171 25.9268571 28.8770743 12.5787429"></polygon>
                <path d="M7.45211429,0.0913371429 L2.71565714,0.0867657143 L2.71428571,1.47876571 L1.00502857,1.47693714 L0.1424,3.52493714 L2.71245714,3.52768 L2.70605714,9.94733714 L0.130971429,10.5841371 L0.127771429,13.8216229 L2.69965714,13.1857371 L2.66582857,23.7475657 L0.930057143,23.7457371 L0.0674285714,25.8970514 C0.368685714,25.8975086 1.49828571,25.89888 2.67085714,25.8997943 L7.39497143,25.9043657 L7.42605714,23.66528 L7.43748571,12.01408 L8.65851429,11.7123657 L8.66171429,8.47488 L7.44342857,8.77613714 L7.44891429,3.53179429 L8.66628571,3.53316571 L8.66857143,1.48425143 L7.45074286,1.48333714 L7.45211429,0.0913371429 Z" id="Fill-21"></path>
                <polygon id="Fill-23" points="13.3322514 4.73778286 11.17728 8.31904 15.3711086 8.32315429 17.5265371 4.74189714"></polygon>
                <polygon id="Fill-25" points="29.0416457 8.33668571 26.8939886 4.75131429 22.6997029 4.7472 24.84736 8.33257143"></polygon>
                <polygon id="Fill-27" points="10.0191086 0.0940342857 10.0154514 3.82523429 15.0376229 3.82980571 15.0389943 2.06112 25.3265371 2.07163429 25.3247086 3.83986286 30.2120229 3.84489143 30.21568 0.113691429"></polygon>
            </g>
        </g>
    </g>
</svg>