<?xml version="1.0" encoding="UTF-8"?>
<svg width="153px" height="32px" viewBox="0 0 153 32" version="1.1" xmlns="http://www.w3.org/2000/svg" xmlns:xlink="http://www.w3.org/1999/xlink">
    <!-- Generator: Sketch 53.2 (72643) - https://sketchapp.com -->
    <title>PF_w</title>
    <desc>Created with Sketch.</desc>
    <defs>
        <polygon id="path-1" points="0 0.434913088 33.7786971 0.434913088 33.7786971 31.5105829 0 31.5105829"></polygon>
        <path d="M6.85302857,1.07062857 C-3.65165714,3.6576 1.13325714,7.89257143 1.13325714,7.89257143 L1.13325714,7.89257143 C5.48205714,12.2518857 11.9154286,14.5645714 11.7380571,19.5625143 L11.7380571,19.5625143 C11.6132571,23.0820571 8.15908571,25.7472 5.74811429,26.5083429 L5.74811429,26.5083429 L11.6109714,26.5142857 L11.6164571,26.5142857 C14.8224,26.5142857 17.1204571,23.4189714 16.1933714,20.3474286 L16.1933714,20.3474286 L10.1444571,0.302171429 C9.17805714,0.514285714 8.08502857,0.767542857 6.85302857,1.07062857" id="path-3"></path>
        <linearGradient x1="49.9698047%" y1="99.9872378%" x2="50.0311369%" y2="-0.00678246917%" id="linearGradient-5">
            <stop stop-color="#0059B3" offset="0%"></stop>
            <stop stop-color="#0077C8" offset="100%"></stop>
        </linearGradient>
    </defs>
    <g id="Page-1" stroke="none" stroke-width="1" fill="none" fill-rule="evenodd">
        <g id="PF_w">
            <g id="分组" transform="translate(0.000000, 0.022217)">
                <mask id="mask-2" fill="white">
                    <use xlink:href="#path-1"></use>
                </mask>
                <g id="Clip-2"></g>
                <path d="M16.0072686,12.3000686 C16.6138971,15.3624686 19.0029257,17.0634971 21.1524114,19.42144 C21.1524114,19.42144 25.5848686,22.17664 19.8193829,25.7112686 C15.6209829,28.2785829 9.40246857,30.4970971 6.32955429,31.5105829 L3.59172571,31.5082971 C0.483611429,31.5050971 -1.15021714,27.8196114 0.931611429,25.5133257 L20.7135543,3.65778286 C20.9050971,3.41869714 21.1089829,3.19149714 21.3242971,2.97618286 C22.6760686,1.62624 24.4584686,0.718811429 26.4548114,0.505782857 C26.5146971,0.493897143 26.5745829,0.482011429 26.6344686,0.482011429 C26.9092114,0.446354286 27.1844114,0.434468571 27.47104,0.434925714 L28.5352686,0.43584 C30.9613257,0.737554286 32.9562971,2.41389714 33.7192686,4.65115429 C33.74304,4.71104 33.7668114,4.78281143 33.7786971,4.85458286 C30.6824686,5.18646857 26.9279543,5.66098286 24.2737829,6.25618286 C24.2737829,6.25618286 22.9823543,6.47058286 21.4157257,6.98349714 C20.5905829,7.24544 19.6936686,7.59149714 18.85664,8.03355429 C17.0623543,8.97618286 15.6145829,10.36224 16.0072686,12.3000686" id="Fill-1" fill="#0096DC" mask="url(#mask-2)"></path>
            </g>
            <g id="分组" transform="translate(23.771429, 5.050789)">
                <mask id="mask-4" fill="white">
                    <use xlink:href="#path-3"></use>
                </mask>
                <g id="Clip-4"></g>
                <path d="M6.85302857,1.07062857 C-3.65165714,3.6576 1.13325714,7.89257143 1.13325714,7.89257143 L1.13325714,7.89257143 C5.48205714,12.2518857 11.9154286,14.5645714 11.7380571,19.5625143 L11.7380571,19.5625143 C11.6132571,23.0820571 8.15908571,25.7472 5.74811429,26.5083429 L5.74811429,26.5083429 L11.6109714,26.5142857 L11.6164571,26.5142857 C14.8224,26.5142857 17.1204571,23.4189714 16.1933714,20.3474286 L16.1933714,20.3474286 L10.1444571,0.302171429 C9.17805714,0.514285714 8.08502857,0.767542857 6.85302857,1.07062857" id="Fill-3" fill="url(#linearGradient-5)" mask="url(#mask-4)"></path>
            </g>
            <path d="M152.9184,9.53412571 L141.007086,9.52224 L141.0048,11.79744 L143.380114,11.8001829 L144.452114,10.2920686 L150.3232,10.2980114 L149.251657,11.8056686 L152.916114,11.8093257 L152.914286,13.99264 L132.741943,13.9729829 L130.747429,16.4168686 L152.911543,16.4388114 L152.900114,28.4781257 C152.898286,30.1553829 151.537371,31.5135543 149.860571,31.5117257 L132.700343,31.4916114 L132.703086,28.5919543 L132.7072,28.5919543 L132.7104,25.1281829 L132.7136,22.23584 L135.605486,22.2385829 L144.545829,22.2472686 L142.821486,25.1377829 L135.602743,25.1309257 L135.599086,28.5946971 L147.309257,28.6061257 L147.3184,19.1112686 L129.6768,19.0938971 L129.6704,25.8349257 L129.669943,25.8349257 L129.664457,31.4879543 L124.149943,31.4810971 L124.162743,18.6477257 L123.136,18.6463543 L126.753371,13.96704 L122.7968,13.9629257 L122.799086,11.7796114 L134.576457,11.79104 L134.578743,9.51584 L122.801371,9.50441143 L122.803657,7.06281143 L134.581486,7.07469714 L134.582857,5.67995429 L141.0112,5.68635429 L141.009829,7.08064 L152.921143,7.09252571 L152.9184,9.53412571 Z M100.942537,28.6682514 L109.54048,28.6769371 L109.535909,21.8275657 L100.940251,21.8193371 L100.942537,28.6682514 Z M99.1455086,19.0193371 L114.194651,19.0339657 L114.185509,28.7039086 C114.18368,30.2371657 112.907794,31.4778514 111.334766,31.4769371 L96.2810514,31.4618514 L96.2901943,21.7969371 C96.2920229,20.2609371 97.5701943,19.0175086 99.1455086,19.0193371 Z M87.0536686,8.43163429 L87.04864,13.20512 L92.0767543,13.2101486 L92.0813257,8.43666286 L87.0536686,8.43163429 Z M84.0570971,16.0005486 L84.0676114,5.63026286 L95.0733257,5.64123429 L95.0655543,13.2128914 C95.0641829,14.7584914 93.7247543,16.0101486 92.0735543,16.00832 L84.0570971,16.0005486 Z M92.0175086,17.3392457 L92.0133943,21.2528457 L95.0570514,21.2555886 L95.0547657,24.05376 L92.0106514,24.0510171 L92.0065371,28.6416457 L95.0501943,28.6443886 L95.0469943,31.4430171 L84.0421943,31.4320457 L84.0559086,17.2651886 L86.57888,17.2674743 L86.5674514,28.63616 L87.8195657,28.6375314 L87.8309943,17.3351314 L92.0175086,17.3392457 Z M114.185371,18.5499429 C110.855543,18.1888 107.628571,17.2461714 104.704686,15.8354286 C102.123657,17.2018286 99.2784,18.1787429 96.2434286,18.6363429 L96.2466286,15.7051429 C98.1355429,15.3769143 99.9394286,14.8201143 101.634057,14.0781714 C99.9366857,12.9746286 98.3728,11.7188571 97.0288,10.2998857 L101.634514,10.3044571 C102.589943,11.0811429 103.645943,11.7782857 104.764114,12.4054857 C106.1168,11.5410286 107.370286,10.5494857 108.488457,9.43222857 L96.2525714,9.42034286 L96.2557714,9.41028571 L96.2525714,9.41028571 L97.1170286,5.64297143 L101.367543,5.64708571 L101.128457,6.69028571 L114.189486,6.70308571 C113.685257,7.51085714 113.134857,8.69211429 112.533714,9.43634286 C111.192457,11.1049143 109.610286,12.5851429 107.857143,13.8683429 C109.8768,14.6614857 112.021257,15.2242286 114.188571,15.4939429 L114.185371,18.5499429 Z M55.28448,31.4146743 L56.5909943,18.0693029 L60.6554514,18.07296 L59.4833371,31.4192457 L55.28448,31.4146743 Z M68.2514743,13.5678171 L68.2501029,14.7952457 L75.4638171,14.80256 L74.6011886,16.9886171 L68.2482743,16.9826743 L68.2363886,29.2578743 C68.2354743,30.19136 67.9483886,31.4270171 65.4542171,31.4251886 L62.4645029,31.4219886 L62.4791314,16.9767314 L55.26496,16.9694171 L56.1275886,14.78336 L62.48096,14.78976 L62.4823314,13.5618743 L68.2514743,13.5678171 Z M70.0693029,18.08256 L74.1342171,18.0866743 L75.41376,31.4347886 L71.3410743,31.4306743 L70.0693029,18.08256 Z M52.7092571,5.59926857 L52.7078857,6.99126857 L53.9257143,6.99218286 L53.9234286,9.04109714 L52.7060571,9.03972571 L52.7005714,14.2840686 L53.9188571,13.9828114 L53.9156571,17.2202971 L52.6946286,17.5220114 L52.6832,29.1732114 L52.6521143,31.4122971 L47.928,31.4077257 C46.7554286,31.4068114 45.6258286,31.40544 45.3245714,31.4049829 L46.1872,29.2536686 L47.9229714,29.2554971 L47.9568,18.6936686 L45.3849143,19.3295543 L45.3881143,16.0920686 L47.9632,15.4552686 L47.9696,9.03561143 L45.3995429,9.03286857 L46.2621714,6.98486857 L47.9714286,6.98669714 L47.9728,5.59469714 L52.7092571,5.59926857 Z M58.5893943,10.2457143 L62.78368,10.2498286 L60.6282514,13.8310857 L56.4344229,13.8269714 L58.5893943,10.2457143 Z M74.2987886,13.8446171 L70.1045029,13.8405029 L67.9568457,10.2551314 L72.1511314,10.2592457 L74.2987886,13.8446171 Z M55.2762514,5.60196571 L75.4728229,5.62162286 L75.4691657,9.35282286 L70.5818514,9.34779429 L70.58368,7.57956571 L60.2961371,7.56905143 L60.2947657,9.33773714 L55.2725943,9.33316571 L55.2762514,5.60196571 Z" id="合并形状" fill="#FFFFFF"></path>
        </g>
    </g>
</svg>